<svg width="120" height="120" viewBox="0 0 120 120" xmlns="http://www.w3.org/2000/svg">
    <defs>
        <linearGradient id="grad1" x1="0%" y1="0%" x2="100%" y2="100%">
            <stop offset="0%" style="stop-color:#8B5CF6;stop-opacity:1" />
            <stop offset="100%" style="stop-color:#6366F1;stop-opacity:1" />
        </linearGradient>
    </defs>
    <path d="M 70 20 Q 90 20, 90 35 Q 90 45, 80 50 L 40 50 Q 30 50, 30 60 Q 30 70, 40 70 L 80 70 Q 100 70, 100 90 Q 100 110, 80 110 L 40 110 Q 20 110, 20 90 L 35 90 Q 35 95, 40 95 L 80 95 Q 85 95, 85 90 Q 85 85, 80 85 L 40 85 Q 20 85, 20 65 Q 20 45, 40 45 L 80 45 Q 85 45, 85 40 Q 85 35, 80 35 L 40 35 Q 35 35, 35 40 L 20 40 Q 20 20, 40 20 Z" fill="url(#grad1)"/>
</svg>